<svg id="Capa_1" enable-background="new 0 0 512.294 512.294" height="512" viewBox="0 0 512.294 512.294" width="512" xmlns="http://www.w3.org/2000/svg"><g><g><g><path d="m171.942 78.789s-1.497-39.047 39.853-54.487c0 0 13.016-5.88 29.182-8.801 4.283-.774 8.227 2.526 8.293 6.879l.083 5.408s14.114-10.86 40.864-13.071c4.139-.342 7.698 2.915 7.698 7.068v7.498s12.437-15.158 49.612-9.302c2.922.46 5.277 2.66 5.873 5.557 2.102 10.225 5.161 34.964-9.058 53.251z" fill="#e19974"/></g><g><path d="m344.345 78.791h-21.058c14.222-18.289 11.164-43.025 9.055-53.249-.59-2.898-2.948-5.097-5.867-5.557-1.789-.28-3.528-.52-5.207-.7 6.896-.93 15.551-.989 26.255.7 2.928.46 5.277 2.658 5.877 5.557 2.099 10.224 5.157 34.96-9.055 53.249z" fill="#dc8758"/></g><g><path d="m256.146 281.548c-49.288 0-89.243-39.955-89.243-89.243v-82.956h178.486v82.956c0 49.287-39.955 89.243-89.243 89.243z" fill="#ffcebf"/></g><g><path d="m345.385 109.353v82.952c0 49.292-39.947 89.238-89.238 89.238-3.388 0-6.726-.19-10.014-.56 44.584-4.977 79.234-42.775 79.234-88.679v-82.952h20.018z" fill="#ffb09e"/></g><g><path d="m166.903 160.613s36.325-13.097 40.788-51.477h-40.789z" fill="#7ca1b1"/></g><g><path d="m166.903 195.27h-11.236c-9.57 0-17.328-7.758-17.328-17.328 0-9.57 7.758-17.328 17.328-17.328h11.236z" fill="#ffcebf"/></g><g><path d="m345.391 195.27h11.236c9.57 0 17.328-7.758 17.328-17.328 0-9.57-7.758-17.328-17.328-17.328h-11.236z" fill="#ffcebf"/></g><g><path d="m365.991 511.996h-219.689v-96.918c0-60.665 49.179-109.844 109.844-109.844 60.665 0 109.844 49.179 109.844 109.844v96.918z" fill="#8ac9fe"/></g><g><path d="m365.993 415.076v96.924h-19.988v-96.924c0-30.333-12.293-57.797-32.171-77.675-17.67-17.67-41.336-29.343-67.681-31.712 3.288-.31 6.626-.46 9.994-.46 30.332 0 57.797 12.293 77.675 32.171 19.878 19.88 32.171 47.344 32.171 77.676z" fill="#60b7ff"/></g><g><path d="m235.119 316.516c0 11.613 9.414 21.028 21.028 21.028 11.613 0 21.028-9.414 21.028-21.028v-43.534h-42.055v43.534z" fill="#ffcebf"/></g><g><path d="m277.174 272.978v43.535c0 11.613-9.415 21.028-21.028 21.028-3.828 0-7.426-1.029-10.514-2.818 6.286-3.628 10.514-10.424 10.514-18.209v-43.535h21.028z" fill="#ffb09e"/></g><g><path d="m345.385 169.358v22.947c0 49.292-39.947 89.238-89.238 89.238s-89.238-39.947-89.238-89.238v-22.947c4.727 5.817 46.973 37.188 89.238 37.188 42.265.001 84.51-31.371 89.238-37.188z" fill="#8ac9fe"/></g><g><path d="m345.385 169.358v22.947c0 49.292-39.947 89.238-89.238 89.238-.849 0-1.689-.01-2.528-.04-.73-.02-1.449-.04-2.169-.09-.36-.01-.72-.03-1.079-.06-.59-.03-1.179-.08-1.759-.13-.78-.06-1.539-.14-2.309-.22-.06 0-.11-.01-.16-.02 44.584-4.987 79.224-42.775 79.224-88.679v-8.104c10.813-6.576 18.189-12.603 20.018-14.842z" fill="#60b7ff"/></g><g><path d="m345.389 160.613s-36.325-13.097-40.788-51.477h40.789z" fill="#7ca1b1"/></g><g><path d="m345.385 109.353v51.26s-9.914-3.568-20.018-12.463v-38.798h20.018z" fill="#678d98"/></g><g><path d="m347.98 100.267h-183.667c-4.56 0-8.257-3.697-8.257-8.257v-13.834c0-4.56 3.697-8.257 8.257-8.257h183.667c4.56 0 8.257 3.697 8.257 8.257v13.834c-.001 4.56-3.697 8.257-8.257 8.257z" fill="#a8d3d8"/></g><g><path d="m356.238 78.167v13.852c0 4.557-3.698 8.245-8.255 8.245h-19.988c4.557 0 8.255-3.688 8.255-8.245v-13.852c0-4.557-3.698-8.245-8.255-8.245h19.988c4.557 0 8.255 3.688 8.255 8.245z" fill="#8ebac5"/></g><g><circle cx="256.146" cy="86.764" fill="#eef5f6" r="29.633"/></g><g><path d="m285.779 86.764c0 16.371-13.262 29.633-29.633 29.633-9.385 0-17.75-4.357-23.167-11.163 2.618.76 5.397 1.169 8.265 1.169 16.361 0 29.633-13.262 29.633-29.633 0-6.986-2.419-13.402-6.466-18.469 12.343 3.578 21.368 14.961 21.368 28.463z" fill="#deecf1"/></g></g><g><path d="m256.146 94.727c4.397 0 7.962-3.565 7.962-7.962s-3.565-7.962-7.962-7.962-7.962 3.565-7.962 7.962 3.565 7.962 7.962 7.962z"/><g><path d="m225.415 145.806c-4.14 0-7.496 3.356-7.496 7.496v11.222c0 4.14 3.356 7.496 7.496 7.496s7.496-3.356 7.496-7.496v-11.222c0-4.14-3.356-7.496-7.496-7.496z"/><path d="m286.877 172.019c4.14 0 7.496-3.356 7.496-7.496v-11.222c0-4.14-3.355-7.496-7.496-7.496-4.14 0-7.496 3.356-7.496 7.496v11.222c0 4.14 3.356 7.496 7.496 7.496z"/><path d="m288.365 361.5c-4.14 0-7.496 3.356-7.496 7.496s3.355 7.496 7.496 7.496h20.805c4.14 0 7.496-3.356 7.496-7.496s-3.356-7.496-7.496-7.496z"/><path d="m352.313 195.568h4.314c13.687 0 24.824-11.136 24.824-24.824s-11.136-24.824-24.824-24.824h-3.742l.001-37.277c6.288-2.067 10.846-7.985 10.846-14.956v-13.844c0-5.644-2.994-10.589-7.467-13.37 9.169-18.994 6.384-40.362 4.477-49.644-1.215-5.906-6.057-10.508-12.048-11.451-21.389-3.37-35.585-.317-44.424 3.568-.803-1.912-2.013-3.654-3.565-5.084-2.997-2.759-7.04-4.147-11.106-3.813-15.286 1.264-26.843 5.2-34.392 8.67-.903-1.793-2.178-3.402-3.77-4.712-3.301-2.715-7.601-3.837-11.792-3.079-14.643 2.645-26.765 7.553-30.131 8.995-3.806 1.629-5.57 6.035-3.941 9.841 1.628 3.806 6.037 5.57 9.841 3.941 2.108-.902 13.173-5.475 26.37-7.927l.076 4.929c.043 2.818 1.682 5.36 4.213 6.601 2.53 1.241 5.562.943 7.817-.748.127-.095 12.884-9.483 36.531-11.534v7.06c0 3.233 1.962 6.242 5.03 7.258 3.038 1.006 6.272.107 8.205-2.431.426-.433 3.151-3.038 9.028-5.133 6.089-2.172 16.825-4.209 33.437-1.629 1.716 8.527 4.211 28.516-5.651 43.946h-54.947c-6.796-8.786-17.432-14.459-29.374-14.459s-22.578 5.673-29.375 14.459h-46.648c1.021-5.89 3.542-14.511 9.745-22.555 2.528-3.278 1.92-7.985-1.358-10.513s-7.986-1.92-10.513 1.358c-8.958 11.616-12.015 23.967-13.045 31.71h-.645c-8.683 0-15.748 7.064-15.748 15.748v13.844c0 6.971 4.557 12.89 10.846 14.956l.001 37.277h-3.74c-13.688 0-24.824 11.136-24.824 24.824s11.136 24.824 24.824 24.824h4.312c4.19 38.782 31.401 70.746 67.643 81.957v16.522c-50.963 12.774-88.817 58.966-88.817 113.833v96.918c0 4.14 3.356 7.496 7.496 7.496h219.687c4.14 0 7.496-3.356 7.496-7.496v-40.71c0-4.14-3.355-7.496-7.496-7.496-4.14 0-7.496 3.356-7.496 7.496v33.215h-33.684v-95.886c0-4.14-3.355-7.496-7.496-7.496-4.14 0-7.496 3.356-7.496 7.496v95.886h-107.346v-95.886c0-4.14-3.356-7.496-7.496-7.496s-7.496 3.356-7.496 7.496v95.886h-33.684v-89.425c0-46.539 31.234-85.895 73.833-98.276.154 15.596 12.884 28.238 28.516 28.238 15.636 0 28.369-12.649 28.516-28.251 42.601 12.38 73.832 51.748 73.832 98.289v21.252c0 4.14 3.355 7.496 7.496 7.496 4.14 0 7.496-3.356 7.496-7.496v-21.252c0-54.866-37.855-101.047-88.817-113.822v-16.533c36.243-11.211 63.455-43.175 67.645-81.957zm.574-34.657h3.74c5.422 0 9.832 4.411 9.832 9.833s-4.41 9.833-9.832 9.833h-3.74zm-193.479 19.665h-3.74c-5.422 0-9.833-4.411-9.833-9.833 0-5.421 4.411-9.833 9.833-9.833h3.74zm133.064-101.49h55.513c.417 0 .756.339.756.756v13.844c0 .417-.34.756-.756.756h-55.513c.523-2.479.803-5.046.803-7.678s-.28-5.199-.803-7.678zm45.423 30.348-.002 31.635c-8.376-5.448-19.652-15.457-24.204-31.635zm-81.749-44.807c12.206 0 22.137 9.931 22.137 22.138s-9.931 22.137-22.137 22.137c-12.207 0-22.138-9.931-22.138-22.137s9.932-22.138 22.138-22.138zm-92.594 29.059v-13.843c0-.417.339-.756.756-.756h55.513c-.523 2.479-.803 5.046-.803 7.678s.28 5.199.803 7.678h-55.513c-.417 0-.756-.34-.756-.757zm35.061 15.748c-4.548 16.298-15.821 26.278-24.214 31.694l-.001-31.694zm15.417 0h12.742c6.796 8.786 17.432 14.459 29.375 14.459s22.578-5.673 29.374-14.459h12.741c6.394 30.001 30.206 44.339 40.185 49.13-7.817 7.198-45.747 33.289-82.301 33.289-36.561 0-74.499-26.102-82.301-33.289 9.979-4.791 33.792-19.129 40.185-49.13zm55.648 199.885c0 7.461-6.071 13.532-13.532 13.532s-13.532-6.07-13.532-13.532v-28.426c4.423.622 8.94.948 13.532.948s9.109-.326 13.532-.948zm-13.532-42.469c-45.073 0-81.743-36.669-81.743-81.743v-7.316c17.499 12.142 49.232 29.054 81.743 29.054 32.512 0 64.244-16.912 81.742-29.053v7.316c.001 45.073-36.669 81.742-81.742 81.742z"/></g></g></g></svg>