<svg id="Capa_1" enable-background="new 0 0 512 512" height="512" viewBox="0 0 512 512" width="512" xmlns="http://www.w3.org/2000/svg"><g><path d="m501 256c0 135.31-109.69 245-245 245s-245-109.69-245-245 109.69-245 245-245 245 109.69 245 245z" fill="#65b1cf"/><path d="m478.807 224.346c0 101.068-81.932 183-183 183s-183-81.932-183-183 81.932-183 183-183 183 81.932 183 183z" fill="#7fbed7"/><path d="m511.938 255.39c0 .001 0 .001 0 0-.721 8.246-7.505 14.768-20.688 19.846-3.557 1.37-7.573-.215-9.273-3.627-.029-.059-.059-.118-.088-.177-1.964-3.93-.065-8.672 4.041-10.236 8.308-3.165 10.965-5.967 11.065-7.114.218-2.493-10.096-14.777-64.539-29.326-45.801-12.239-107.344-22.157-173.291-27.926-38.822-3.397-76.392-5.112-110.364-5.112-23.736 0-45.717.837-65.143 2.524-56.143 4.875-68.434 15.181-68.651 17.675-.067.765.858 2.453 3.747 4.845 5.393 4.467 2.242 13.238-4.763 13.238-1.731 0-3.425-.586-4.75-1.699-6.703-5.626-9.722-11.475-9.178-17.691.816-9.33 9.394-16.454 26.222-21.776 13.492-4.267 32.359-7.475 56.075-9.534 48.072-4.174 111.326-3.254 178.113 2.588 66.788 5.843 129.241 15.921 175.856 28.379 22.998 6.146 41.021 12.581 53.568 19.126 15.647 8.163 22.857 16.667 22.041 25.997z" fill="#232e7a"/><path d="m409.464 245.116-66.684 175.044c-5.616 14.743-23.472 20.451-36.598 11.699-5.943-3.962-9.868-10.313-10.754-17.4l-6.368-50.948s-.79-25.757-11.077-45.554c-9.338-17.97-34.99-18.155-43.963 0-8.344 16.882-10.895 44.093-10.895 44.093l-6.551 52.409c-.886 7.087-4.811 13.438-10.754 17.4-13.127 8.751-30.982 3.043-36.598-11.699l-66.684-175.045c-10.193-26.756-11.935-55.995-4.99-83.772l13.212-52.847c6.169-24.676 30.967-39.864 55.752-34.144l24.783 5.719c9.589 2.213 19.603 1.216 28.664-2.623 23.443-9.932 48.643-9.932 72.086 0 9.062 3.839 19.075 4.836 28.664 2.623l24.783-5.719c24.784-5.719 49.583 9.468 55.752 34.144l13.212 52.847c6.942 27.778 5.2 57.016-4.992 83.773z" fill="#ececf1"/><path d="m209.533 420.16c.736 1.933 1.684 3.711 2.803 5.321-1.736 2.486-3.936 4.658-6.517 6.378-13.127 8.751-30.982 3.043-36.598-11.699l-66.684-175.045c-10.193-26.756-11.935-55.995-4.99-83.772l13.212-52.847c6.169-24.676 30.967-39.864 55.752-34.144l11.344 2.618c-12.893 5.572-23.12 16.877-26.783 31.526l-13.212 52.847c-6.944 27.777-5.202 57.016 4.99 83.772zm116.997-5.7-6.368-50.948s-.79-25.757-11.077-45.554c-6.155-11.844-35.626-16.932-52.845-13.543 8.577.151 17.141 4.687 21.742 13.543 10.288 19.797 11.077 45.554 11.077 45.554l6.368 50.948c.886 7.087 4.811 13.438 10.754 17.4 9.38 6.253 21.174 5.123 29.191-1.41l.002-.001c-4.869-3.975-8.057-9.692-8.844-15.989z" fill="#d3d3d8"/><path d="m332.591 247.557c-14.228-12.768-.306-33.319-5.579-72.176-3.535-26.049-11.98-33.278-5.929-44.03 7.246-12.875 29.038-19.03 43.544-12.441 27.746 12.603 20.231 67.03 19.439 72.314-4.018 26.814-19.844 61.728-38.645 61.776-6.611.017-11.536-4.281-12.83-5.443z" fill="#fff5f5"/><path d="m230 190c0 4.142-3.358 7.5-7.5 7.5h-5v5c0 4.142-3.358 7.5-7.5 7.5s-7.5-3.358-7.5-7.5v-5h-5c-4.142 0-7.5-3.358-7.5-7.5s3.358-7.5 7.5-7.5h5v-5c0-4.142 3.358-7.5 7.5-7.5s7.5 3.358 7.5 7.5v5h5c4.142 0 7.5 3.358 7.5 7.5z" fill="#2b3894"/><path d="m210 247.692v34.615c0 6.372-5.166 11.538-11.538 11.538h-34.615v34.615c0 6.372-5.166 11.538-11.538 11.538h-34.615c-6.372 0-11.538-5.166-11.538-11.538v-34.615h-34.618c-6.372 0-11.538-5.166-11.538-11.538v-34.615c0-6.373 5.166-11.539 11.538-11.539h34.615v-34.615c0-6.373 5.166-11.538 11.538-11.538h34.615c6.372 0 11.538 5.166 11.538 11.538v34.615h34.615c6.375.001 11.541 5.167 11.541 11.539zm301.937 7.699c-.816 9.33-9.393 16.453-26.221 21.775-13.492 4.267-32.359 7.475-56.075 9.534-19.831 1.722-42.252 2.577-66.434 2.577-34.435 0-72.444-1.733-111.679-5.166-8.351-.731-16.635-1.527-24.828-2.387-3.813-.4-6.699-3.626-6.699-7.459 0-4.448 3.846-7.921 8.27-7.457 8.104.85 16.3 1.638 24.565 2.361 65.947 5.77 128.276 6.688 175.508 2.588 56.143-4.875 68.434-15.181 68.651-17.675.361-4.126 3.989-7.172 8.125-6.817 4.126.362 7.179 3.999 6.817 8.126zm-466.776-25.01c-24.752-9.466-30.317-16.626-30.156-18.464.361-4.126-2.691-7.763-6.818-8.125-4.119-.357-7.764 2.691-8.125 6.817-.816 9.33 6.394 17.834 22.042 25.998 5.043 2.631 10.97 5.244 17.75 7.827 4.898 1.866 10.149-1.777 10.149-7.018v-.024c0-3.114-1.932-5.898-4.842-7.011z" fill="#3d4ec6"/><path d="m210 247.692v34.615c0 6.372-5.166 11.538-11.538 11.538h-34.615v34.615c0 6.372-5.166 11.538-11.538 11.538h-17.309v-149.998h17.308c6.372 0 11.538 5.166 11.538 11.538v34.615h34.615c6.373.001 11.539 5.167 11.539 11.539zm0-117.692c0 4.142-3.358 7.5-7.5 7.5h-5v5c0 4.142-3.358 7.5-7.5 7.5s-7.5-3.358-7.5-7.5v-5h-5c-4.142 0-7.5-3.358-7.5-7.5s3.358-7.5 7.5-7.5h5v-5c0-4.142 3.358-7.5 7.5-7.5s7.5 3.358 7.5 7.5v5h5c4.142 0 7.5 3.358 7.5 7.5z" fill="#5766ce"/></g></svg>