<svg id="Capa_1" enable-background="new 0 0 512 512" height="512" viewBox="0 0 512 512" width="512" xmlns="http://www.w3.org/2000/svg"><g><path d="m194.03 265.929c-46.667 5.891-108.765 15.596-146.536 28.995-6.135 2.176-10.204 8.021-10.204 14.531v187.094c0 8.532 6.916 15.448 15.448 15.448h203.025.474 203.025c8.532 0 15.448-6.916 15.448-15.448v-187.096c0-6.509-4.067-12.352-10.201-14.53-37.702-13.383-99.552-23.081-146.076-28.974-41.307-5.231-83.094-5.234-124.403-.02z" fill="#f58a97"/><path d="m474.708 309.451v187.102c0 8.527-6.91 15.448-15.448 15.448h-20.597c8.537 0 15.448-7.137 15.448-15.942v-193.076c0-5.664-2.894-10.844-7.487-13.676 6.395 1.792 12.399 3.666 17.888 5.613 6.128 2.182 10.196 8.022 10.196 14.531z" fill="#f07281"/><path d="m396.483 269.738c-.497-5.745 1.19-11.481 4.773-15.999.021-.026.042-.053.063-.079 36.733-46.268 61.381-97.539 47.662-157.026-2.198-9.532-5.067-18.919-8.706-28.002-15.822-39.496-49.542-68.632-93.556-68.632-21.288 0-40.97 6.875-56.946 18.527-20.115 14.669-47.432 14.669-67.546 0-15.977-11.652-35.658-18.527-56.946-18.527-44.014 0-77.733 29.136-93.555 68.632-3.639 9.083-6.508 18.47-8.706 28.002-13.719 59.488 10.929 110.758 47.661 157.026.021.026.042.053.063.079 3.583 4.518 5.271 10.254 4.774 16-1.921 22.18-3.408 44.481-6.464 66.431-3.463 24.874-4.844 51.484 3.807 75.506 8.296 23.038 38.384 62.802 67.116 45.62 22.875-13.68 16.293-51.599 16.174-73.648-.077-14.214 1.779-27.687 5.839-39.836 17.443-52.204 90.574-52.21 108.021-.008 4.061 12.151 5.918 25.627 5.841 39.844-.119 22.049-6.701 59.969 16.174 73.648 28.731 17.182 58.819-22.583 67.116-45.62 8.651-24.022 7.269-50.632 3.807-75.506-3.058-21.951-4.546-44.252-6.466-66.432z" fill="#eef5f6"/><path d="m402.948 336.165c3.46 24.881 4.84 51.492-3.81 75.508-7.899 21.946-35.571 59.062-63.006 47.692 19.217-7.25 35.694-31.565 41.503-47.692 8.651-24.016 7.271-50.627 3.81-75.508-3.059-21.946-4.552-44.242-6.467-66.425-.494-5.747 1.184-11.483 4.768-16.004.021-.021.041-.052.062-.072 36.734-46.271 61.389-97.547 47.671-157.03-2.204-9.536-5.077-18.918-8.712-28.001-14.51-36.22-44.057-63.717-82.81-68.032 3.532-.391 7.127-.597 10.762-.597 44.015 0 77.733 29.134 93.551 68.629 3.646 9.083 6.509 18.465 8.712 28.001 13.718 59.484-10.927 110.76-47.661 157.03-.021.021-.041.052-.062.072-3.584 4.521-5.273 10.257-4.778 16.004 1.926 22.183 3.409 44.479 6.467 66.425z" fill="#deecf1"/></g></svg>